<svg xmlns="http://www.w3.org/2000/svg" xmlns:xlink="http://www.w3.org/1999/xlink" width="213" height="208" version="1.1" viewBox="0 0 213 208"><title>Shape</title><desc>Created with Sketch.</desc><defs><radialGradient id="radialGradient-1" cx="50%" cy="0%" r="233.931%" fx="50%" fy="0%" gradientTransform="translate(0.500000,0.000000),scale(0.983486,1.000000),rotate(129.600022),translate(-0.500000,-0.000000)"><stop offset="0%" stop-color="#FFF"/><stop offset="9.215%" stop-color="#FAFAFA"/><stop offset="9.215%" stop-color="#FAFAFA"/><stop offset="23.372%" stop-color="#FFF"/><stop offset="100%" stop-color="#31A217"/></radialGradient><path id="path-2" d="M0.99898323,199.295281 L204.108324,199.295281 C204.108324,197.033485 204.108324,194.771688 204.108324,192.509891 L204.108324,191.378993 C204.108324,191.378993 204.108324,191.152813 204.108324,191.152813 C203.655964,175.094057 200.715629,164.011253 184.204513,153.833168 C162.491265,140.262388 138.290041,128.501046 138.290041,128.501046 C134.897346,126.691608 132.861729,121.715656 131.73083,115.608805 C131.504651,113.799367 131.052291,111.98993 130.826112,110.180493 C153.444078,90.2766821 148.694305,47.5287251 148.694305,47.5287251 C146.432509,-0.421364182 106.398708,-0.195184516 102.327474,0.0309951508 C98.4824195,-0.195184516 58.2224389,-0.421364182 55.9606422,47.5287251 C55.9606422,47.5287251 51.2108692,90.2766821 73.8288358,110.180493 C73.6026562,111.98993 73.3764765,113.799367 72.9241172,115.608805 C71.7932188,121.715656 69.7576018,126.691608 66.3649068,128.501046 C66.3649068,128.501046 42.1636825,140.262388 20.4504345,153.833168 C4.16549856,164.011253 0.99898323,175.094057 0.546623897,191.152813 C0.546623897,191.152813 0.546623897,191.152813 0.546623897,191.378993 L0.546623897,192.509891 C0.546623897,194.997868 0.546623897,197.485844 0.546623897,200.2 L0.546623897,199.295281 L0.99898323,199.295281 Z M203.882144,190.926634 C203.882144,190.926634 203.882144,190.926634 203.882144,190.926634 C203.882144,190.474274 203.882144,190.700454 203.882144,190.926634 Z M1.2251629,190.926634 C1.2251629,190.926634 1.2251629,190.926634 1.2251629,190.926634 C1.2251629,190.700454 1.2251629,190.474274 1.2251629,190.926634 Z"/><filter id="filter-3" width="106.9%" height="107%" x="-3.4%" y="-2.5%" filterUnits="objectBoundingBox"><feOffset dx="0" dy="2" in="SourceAlpha" result="shadowOffsetOuter1"/><feGaussianBlur in="shadowOffsetOuter1" result="shadowBlurOuter1" stdDeviation="2"/><feColorMatrix in="shadowBlurOuter1" type="matrix" values="0 0 0 0 0 0 0 0 0 0 0 0 0 0 0 0 0 0 0.5 0"/></filter></defs><g id="Playground" fill="none" fill-rule="evenodd" stroke="none" stroke-width="1"><g id="profile" fill-rule="nonzero" transform="translate(4.000000, 2.000000)"><g id="Shape"><use fill="#000" fill-opacity="1" filter="url(#filter-3)" xlink:href="#path-2"/><use fill="url(#radialGradient-1)" fill-rule="evenodd" xlink:href="#path-2"/></g></g></g></svg>