<svg xmlns="http://www.w3.org/2000/svg" xmlns:xlink="http://www.w3.org/1999/xlink" id="Capa_1" width="408" height="408" x="0" y="0" fill="#31A217" stroke="#31A217" version="1.1" viewBox="0 0 408 408" style="enable-background:new 0 0 408 408" xml:space="preserve"><g><g id="keyboard-control"><path d="M51,153c-28.05,0-51,22.95-51,51s22.95,51,51,51s51-22.95,51-51S79.05,153,51,153z M357,153c-28.05,0-51,22.95-51,51 s22.95,51,51,51s51-22.95,51-51S385.05,153,357,153z M204,153c-28.05,0-51,22.95-51,51s22.95,51,51,51s51-22.95,51-51 S232.05,153,204,153z"/></g></g></svg>